<svg version="1" xmlns="http://www.w3.org/2000/svg" width="1365.333" height="1365.333" viewBox="0 0 1024.000000 1024.000000"><path d="M632.2.7c.2.7-.8 7.6-1.8 12.6-1.1 5.5-2.8 14.8-3.7 20.7-.3 1.4-.8 4.5-1.2 7-.4 2.5-.9 5.4-1.1 6.5-.2 1.1-.7 3.3-.9 5-.3 1.6-1.2 6.6-2.1 11-.8 4.4-1.7 9.6-2 11.5-.3 1.9-1.2 7.3-2 12-3.2 18-6.3 35.6-6.8 38.5-.3 1.6-1.3 7-2.1 12-.9 4.9-1.8 10.1-2.1 11.5-1.8 10-1.8 9.9.7 10.4 1.3.2 5.6 1.2 9.4 2.1 3.9.9 8 1.8 9.2 2.1 7.1 1.4 38.5 11.8 47.8 15.8 19.1 8.3 24.7 10.9 35.1 16.2 10.3 5.2 20.6 11 29.9 16.7 4.1 2.5 22 14.2 22.5 14.7.3.3 5 3.9 10.5 8 22.4 16.9 46.7 40 63.6 60.4 7.4 9 7.3 9 10 7.6 9.5-5.2 25.1-19.3 33.4-30.4 8-10.8 15.2-26.3 16.9-36.6.3-1.9.8-4.6 1.1-6 .7-3 .7-18.6.1-25.3-3.3-31.3-23.5-67.7-55.1-99.2-7.7-7.7-16.3-15.8-19-18-40.1-32.6-96.9-61.4-155.1-78.4-7.6-2.3-15.2-4.6-16.9-5.1-7.9-2.5-18.6-4.4-18.3-3.3zM449.8 9.5c-.2.2-4.3.5-9.3.9-4.9.3-9.9.8-11 1-1.1.2-4 .7-6.5 1-5.6.8-10 1.5-12 2.1-.8.2-3 .7-4.7 1-13.1 2.2-40.6 12.9-55.2 21.4-23.3 13.7-46.2 36-58.3 56.6-3.3 5.8-8.5 17.6-9.4 21.6-.2 1.1-.7 2.9-1 4.1-1.6 6.4-1.9 10.4-1.8 22.8.1 15.4 1.9 23.5 8.3 38 3.5 7.9 10.4 19.3 15.2 25l2.1 2.4 3.1-1.8c16.5-9.9 50.3-25.3 71.2-32.6 19-6.6 49.2-14.4 64-16.5 1.7-.3 4.1-.7 5.5-1 1.3-.2 4.2-.7 6.5-1 2.2-.3 5.1-.8 6.5-1 1.4-.2 5.4-.7 9-1.1 3.6-.3 7.2-.8 8.1-.9 3.3-.7 29.7-1.7 40.4-1.7 21.5.1 41.9 1.7 58.9 4.5 1.1.2 2.4-5.4 6.1-26.3 1.4-8.5 3.7-21.4 5-28.5 1.3-7.2 2.6-14.4 2.8-16 .8-5 4.7-26.8 5.2-29.5 1.3-6.4 3.4-19.4 3.2-19.5-2.6-1.7-33.3-11.1-42.7-13-.8-.2-4.2-1-7.5-1.9-3.3-.8-7.8-1.8-10-2.1-2.2-.4-4.7-.8-5.5-1-.8-.2-3.1-.7-5-1-1.9-.3-6-1-9-1.5-8.4-1.4-16-2.3-29.5-3.6-6.6-.6-42.2-1.3-42.7-.9zM502.7 185.6c-.1.1-6.3.5-13.7.8-15.6.9-17.4 1-29.5 2.6-4.9.6-10.6 1.4-12.5 1.6-1.9.3-4.2.7-5 .9-.8.3-3.3.7-5.5 1.1-2.2.3-6.7 1.2-10 1.9-3.3.8-7.2 1.6-8.6 1.9-1.5.2-7.9 1.8-14.4 3.5-69.5 18.6-134.6 55.9-186 106.7-6.6 6.6-15.2 15.5-19 19.9-3.9 4.4-8.2 9.3-9.7 10.9-1.5 1.7-2.5 3.2-2.4 3.4.5.5 55.5.6 56.1.1.2-.2 4.8-4.7 10.2-9.9 44.7-43.5 98-74.4 157.8-91.6 12.5-3.6 41.9-9.8 51.5-10.9 3-.3 6.6-.8 8-1 15.1-2.6 70-2.6 83.7-.1 1 .2 4.5.7 7.8 1.1 8.6 1 26.3 4.2 38.5 7.1 66.7 15.6 130.6 51.5 178.6 100.3l5.3 5.4 18.8-.1c37.3-.1 34.6.1 33.1-2.1-2.8-4-13.6-16-24.3-27-38.5-39.6-85.7-71.9-137-93.6-10.1-4.3-45.7-16.7-51.5-17.9-1.4-.3-6.3-1.5-11-2.7-10.1-2.5-10.2-2.5-21-4.5-4.7-.9-9.2-1.8-10.2-1.9-.9-.2-3.8-.7-6.5-1.1-2.6-.3-5.7-.8-6.8-1-1-.2-5.1-.6-9-1-3.8-.3-7.8-.8-8.9-1-3.7-.7-46.2-2.3-46.9-1.8zM289.8 377.5c-.2.1-6.1.6-13.3.9-7.1.4-14.1.8-15.5 1-1.4.2-4.9.7-7.9 1.1-3 .3-6.3.9-7.5 1.1-1.2.2-3.4.6-5.1.9-2.5.5-4.1.8-9.5 2-.3.1-2.1.5-4 .9s-4.6 1.1-6 1.5c-1.4.5-4.5 1.4-7 2.1-8.4 2.4-28.7 11-38.1 16.1-52.9 28.7-88.3 78.7-101.3 143.1-2.4 11.9-2.7 14.4-4.6 30.8-.9 8-.6 54.8.4 61.5.3 2.2.8 5.8 1.1 8 .9 6.8 3.7 22.8 4.9 27.3.3 1.2.8 3.2 1.1 4.3.2 1.2 1.2 4.7 2.1 7.8 1 3.1 1.8 6 1.9 6.6.9 4.2 8.7 22.9 13.1 31.7 19.2 38.3 47.7 67 85.5 86 6.4 3.2 12 5.8 12.4 5.8.4 0 2.1.6 3.8 1.4 6.6 2.9 25.2 8.8 31.7 10 1.4.2 5.7 1.1 9.5 1.9 6.3 1.3 9.6 1.9 20 3.2 17.9 2.3 55.8 2.3 68 .1 1.1-.2 4.7-.7 8-1.1 3.3-.4 11.6-1.9 18.5-3.5 6.9-1.5 13.6-3.1 15-3.4 2.3-.5 3.8 1.2 16.3 17.4l13.8 18h111.1l-3-3.8c-24-30.8-58.2-75.3-58.2-75.7 0-.3 4.6-5.1 10.3-10.8 5.6-5.6 11.4-11.8 12.7-13.7 1.3-1.9 2.7-3.7 3-4 2.5-2.2 19-28.7 19-30.6 0-.3 1.4-3.5 3-7.1 5-10.9 12.7-35.4 14.4-46.3.3-1.9.8-4.6 1.1-6 .2-1.3.7-4.2 1-6.5.4-2.2.8-5.1 1-6.5.4-2.3 1-8.1 2.1-20.4.7-8.1.7-38.3-.1-47.1-1.2-15.4-2.1-21.8-5.1-36.5-10.4-51.9-33.2-91.4-70.7-122.8-10.2-8.5-31.1-21-44.7-26.7-3.6-1.5-7.8-3.3-9.5-4-8.5-3.6-30.4-9.4-45-11.9-12.4-2.1-17-2.5-32.5-3.2-7.4-.3-14.3-.7-15.2-.8-.9-.2-1.8-.3-2-.1zm25 103.4c36.1 10.6 60 43.3 68.6 94.1 2.6 15.4 2.7 51.1.1 64.1-.3 1.3-.7 3.8-.9 5.6-.3 1.8-.7 4-1 5-.3 1-.7 2.9-1 4.3-1.4 7.5-9.2 29-10.5 29-.3-.1-3.8-4.2-7.6-9.3l-7.1-9.2-55.9-.3c-53.2-.2-55.8-.1-54.3 1.5 5.8 6.6 53.7 69.7 53.3 70.2-.4.8-8.7.6-17.1-.4-18-2.1-32.8-9.4-46.7-23.2-15.6-15.4-28.3-43-32.3-70-.3-2.6-.8-5.6-1-6.6-3-16.8-1.9-50.2 2.2-70.7 3.8-18.5 10.7-35.7 19.9-49.5 5.2-7.8 17.4-20.1 25-25 6.7-4.4 21.3-10.3 27.8-11.1 2.3-.4 4.4-.8 4.6-1 .3-.2 6.3-.2 13.5 0 9.5.3 15.1.9 20.4 2.5zM566.4 385.9c-.2.2-.4 100-.4 221.7v221.2h63.8c35 0 64.4-.1 65.2-.4 1.3-.3 1.5-9.4 1.5-74.1v-73.8l21.1-.1 21.2-.1 4.8 10.1c2.6 5.5 7.2 15.3 10.2 21.6 3 6.3 10.7 22.7 17.2 36.5 6.5 13.7 13.8 29.3 16.3 34.5 2.4 5.2 5.9 12.6 7.7 16.5 1.8 3.8 5.6 12 8.5 18.1l5.3 11.2h72.6c39.9-.1 72.6-.4 72.6-.8s-18.7-38-41.5-83.6C889.7 698.9 871 661.3 871 661c0-.4 1.7-1.4 3.7-2.4 17.7-8.4 38.3-29.1 49-49.1 7-13.2 13.1-29.7 14.9-40.4.3-1.4.7-3.3.9-4.1 2.3-8.3 2.7-43.5.6-57-8.5-55.8-40.3-92.9-95.1-111-7.2-2.4-20-5.6-27.5-6.9-10.7-1.9-11.9-2-17.5-2.6-3-.3-7.7-.8-10.5-1.2-5.4-.7-222.4-1.1-223.1-.4zm191.7 96.5c25.7 2.9 44.4 19.2 49.3 43 5.9 28.7-8.1 56.1-33.1 64.5-10.5 3.5-16.2 4-47.3 3.8l-30.5-.2-.1-55.5c0-30.5.1-55.7.2-56 .3-.7 55-.4 61.5.4zM215 900.2c0 1.4 18.8 18.7 34.5 31.7 32.6 26.9 78.4 52.5 121.5 67.8 21.4 7.6 52.2 15.6 72 18.7 6.2 1 25.3 3.4 33 4.3 15.6 1.6 70.9.8 83-1.1 1.4-.3 4.8-.7 7.5-1.1 16-1.9 32.3-5.1 51.2-10 12.3-3.2 38.3-11.4 42.8-13.5 1.1-.5 6.1-2.6 11-4.6 11.3-4.5 43.9-20.4 44.3-21.5.2-.5.8-.9 1.2-.9 2.1 0 35.3-21.1 43.2-27.4 1.4-1.1 4.1-3.2 5.9-4.6 9.6-7.2 25.5-20.8 33.9-28.8 8.4-8.1 9.2-9.1 7-9.3-11.6-.6-59.3 0-59.9.8-2.5 3.8-34.4 25.5-53.1 36.2-20.4 11.6-54.7 26.4-73 31.4-3 .9-9.5 2.7-14.5 4-4.9 1.4-13.7 3.5-19.5 4.7-13.7 2.8-12.6 2.6-19.5 3.5-3.2.4-6.6.8-7.5 1-18.1 3.4-66.2 4-89.5 1-1.6-.2-5.2-.7-8-1.1-2.7-.4-5.9-.8-7-.9-5.8-.6-14.1-2.2-31.4-6-28.3-6.2-68.5-22-98.1-38.6-7.1-3.9-34.2-21.5-37.8-24.4-8.7-7.2-14.7-11.5-16.1-11.6-9.4-.5-57.1-.2-57.1.3z"/></svg>